<?xml version="1.0" encoding="utf-8"?>
<!-- Generator: Adobe Illustrator 26.0.3, SVG Export Plug-In . SVG Version: 6.00 Build 0)  -->
<svg version="1.1" id="Capa_1" xmlns="http://www.w3.org/2000/svg" xmlns:xlink="http://www.w3.org/1999/xlink" x="0px" y="0px"
	 viewBox="0 0 100 100" style="enable-background:new 0 0 100 100;" xml:space="preserve">
<path d="M50.15,19.44c-17.7,0-32.06,14.35-32.06,32.06c0,17.7,14.35,32.06,32.06,32.06c17.7,0,32.06-14.35,32.06-32.06
	C82.2,33.79,67.85,19.44,50.15,19.44z M24.78,50.92c0,0.44-0.36,0.81-0.81,0.81h-3.24c-0.44,0-0.81-0.36-0.81-0.81v-0.3
	c0-0.44,0.36-0.81,0.81-0.81h3.24c0.44,0,0.81,0.36,0.81,0.81V50.92z M50.85,80.42c0,0.44-0.36,0.81-0.81,0.81h-0.3
	c-0.44,0-0.81-0.36-0.81-0.81v-3.24c0-0.44,0.36-0.81,0.81-0.81h0.3c0.44,0,0.81,0.36,0.81,0.81V80.42z M66.93,52.79
	c0,0-0.01,0-0.01,0l-17.19-0.1c-1.1-0.01-1.98-0.9-1.99-1.99l-0.1-25.59c0-1.1,0.89-2,1.99-2.01c0,0,0.01,0,0.01,0
	c1.1,0,2,0.89,2,1.99l0.09,23.61l15.21,0.09c1.1,0.01,1.99,0.91,1.99,2.01C68.93,51.9,68.03,52.79,66.93,52.79z M79.49,51.73h-3.24
	c-0.44,0-0.81-0.36-0.81-0.81v-0.3c0-0.44,0.36-0.81,0.81-0.81h3.24c0.44,0,0.81,0.36,0.81,0.81v0.3
	C80.3,51.37,79.93,51.73,79.49,51.73z" fill="#BFD647"/>
</svg>
