<svg xmlns="http://www.w3.org/2000/svg" xmlns:xlink="http://www.w3.org/1999/xlink" version="1.1" style="" xml:space="preserve" width="100" height="100"><rect id="backgroundrect" width="100%" height="100%" x="0" y="0" fill="none" stroke="none"/>
<style type="text/css">
	.st0{fill:#FFFFFF;}
	.st1{fill:none;stroke:#000000;stroke-width:3;stroke-miterlimit:10;}
	.st2{clip-path:url(#SVGID_00000056413763268206573730000015083240866009607043_);}
</style>

<g class="currentLayer" style=""><title>Layer 1</title><g id="svg_1" class="selected" stroke-opacity="1" stroke="#bfd647" fill="none">
	<g id="svg_2" stroke="#bfd647" fill="none">
		<path d="M49.47,23.72c-15.75,0-28.52,12.77-28.52,28.52c0,15.75,12.77,28.52,28.52,28.52c15.75,0,28.52-12.77,28.52-28.52    C77.99,36.49,65.22,23.72,49.47,23.72z M51.28,35.65c0.01,0.28,0.03,0.56,0.04,0.83c0,0.78,0.04,1.57-0.01,2.34    c-0.03,0.51,0.16,0.64,0.64,0.68c2.11,0.21,4.12,0.77,6,1.76c0.43,0.23,0.58,0.43,0.35,0.92c-0.47,1.02-0.86,2.08-1.29,3.12    c-0.09,0.22-0.19,0.44-0.31,0.71c-1.68-0.95-3.41-1.61-5.37-1.83c0,0.53,0,1,0,1.47c0,1.33,0.01,2.67-0.01,4    c-0.01,0.35,0.11,0.49,0.45,0.58c1.61,0.4,3.19,0.87,4.66,1.69c4.23,2.34,3.83,7.9,1,10.47c-1.64,1.48-3.61,2.15-5.74,2.47    c-0.09,0.01-0.19,0.03-0.36,0.06c0,1.32,0,2.59,0,3.91c-1.19,0-2.34,0-3.56,0c0-1.25,0-2.5,0-3.79c-3.19-0.31-6.22-0.94-8.89-2.83    c0.66-1.46,1.31-2.88,1.97-4.35c2.1,1.4,4.35,2.24,6.86,2.52c0.02-0.23,0.04-0.4,0.04-0.56c0-1.6-0.01-3.2,0.01-4.81    c0.01-0.4-0.13-0.54-0.51-0.66c-1.5-0.49-3.06-0.89-4.45-1.6c-4.47-2.26-3.99-7.62-1.7-10.17c1.6-1.78,3.69-2.58,5.98-2.96    c0.17-0.03,0.34-0.06,0.51-0.09c0.04-0.01,0.07-0.04,0.16-0.09c0-1.23,0-2.5,0-3.8C48.94,35.65,50.08,35.65,51.28,35.65z     M48.95,78.29c-14.24,0-25.83-11.59-25.83-25.83c0-14.01,11.39-25.59,25.39-25.83c0.21,0.02,0.37,0.16,0.37,0.36    c0,0.2-0.16,0.37-0.36,0.37c-13.6,0.23-24.67,11.48-24.67,25.09c0,13.84,11.26,25.1,25.1,25.1c10.5,0,19.97-6.62,23.58-16.47    c0.07-0.19,0.28-0.29,0.47-0.22c0.19,0.07,0.29,0.28,0.22,0.47C69.51,71.48,59.76,78.29,48.95,78.29z" id="svg_3" stroke="#bfd647" fill="none"/>
		<path d="M53.82,57.81c0-1.08-1.2-2.2-2.47-2.29c0,1.54,0,3.07,0,4.61C52.69,60.07,53.82,59,53.82,57.81z" id="svg_4" stroke="#bfd647" fill="none"/>
		<path d="M45.12,46.79c-0.03,1.12,1.13,2.18,2.59,2.38c0-1.6,0-3.21,0-4.81C46.25,44.48,45.15,45.52,45.12,46.79z" id="svg_5" stroke="#bfd647" fill="none"/>
	</g>
</g></g></svg>