<?xml version="1.0" encoding="utf-8"?>
<!-- Generator: Adobe Illustrator 26.0.3, SVG Export Plug-In . SVG Version: 6.00 Build 0)  -->
<svg version="1.1" id="Capa_1" xmlns="http://www.w3.org/2000/svg" xmlns:xlink="http://www.w3.org/1999/xlink" x="0px" y="0px"
	 viewBox="0 0 100 100" style="enable-background:new 0 0 100 100;" xml:space="preserve">
<style type="text/css">
	.st0{fill:#FFFFFF;}
	.st1{fill:#FF0000;}
	.st2{fill:none;stroke:#FFFFFF;stroke-width:3;stroke-miterlimit:10;}
	.st3{clip-path:url(#SVGID_000001335160226371552186FFFFFF12414579315879862427_);}
</style>
<path class="st2" d="M16.79,71.6l9.06,10.14c0.73,0.82,2,0.89,2.82,0.16l2.6-2.32c0.82-0.73,0.89-2,0.16-2.82l-9.06-10.14
	c-0.73-0.82-2-0.89-2.82-0.16l-2.6,2.32C16.13,69.51,16.05,70.78,16.79,71.6z" fill="#FFFFFF"/>
<path d="M30.37,75.93c0,0,6.05-2.33,8.77-4.76c2.71-2.43,10.36-11.07,10.36-11.07s1.68-0.96-0.06-2.3
	c-1.74-1.34-6.19,1.37-7.29,2.36c-1.11,0.99-4.95,3.16-5.87,0.72l-0.46-10.43c0,0-6.29-0.16-8.9,3.8s-3.82,13.54-3.82,13.54
	L30.37,75.93z" fill="#FFFFFF"/>
<g>
	<g>
		<path d="M47.28,40.57c-0.27-0.01-0.52,0.26-0.58,0.6c0.38,0.01,0.76,0.01,1.14,0.02C47.82,40.85,47.58,40.59,47.28,40.57z" fill="#BFD647"/>
		<path d="M45.18,42.01c-0.36-0.01-0.73-0.01-1.09-0.02c0.01,0.32,0.26,0.59,0.54,0.6C44.88,42.6,45.15,42.32,45.18,42.01z" fill="#BFD647"/>
		<path d="M52.62,41.57c0.07-3.77-2.93-6.87-6.69-6.94c-3.77-0.07-6.87,2.93-6.94,6.69s2.93,6.87,6.69,6.94S52.55,45.34,52.62,41.57
			z M43.52,43.43c-0.34-0.39-0.49-0.87-0.56-1.37c0-0.02-0.01-0.04-0.01-0.08c-0.31-0.01-0.62-0.01-0.93-0.02
			c0.01-0.28,0.01-0.56,0.02-0.84c0.3,0.01,0.59,0.01,0.9,0.02c0.09-0.76,0.25-1.47,0.71-2.1c0.34,0.16,0.68,0.32,1.03,0.49
			c-0.34,0.49-0.55,1.02-0.63,1.62c0.05,0,0.09,0.01,0.13,0.01c0.38,0.01,0.76,0.01,1.14,0.02c0.1,0,0.13-0.03,0.16-0.12
			c0.12-0.35,0.22-0.72,0.4-1.05c0.56-1.05,1.83-0.91,2.42-0.36c0.42,0.39,0.6,0.89,0.68,1.43c0.01,0.04,0.01,0.08,0.02,0.12
			c0,0.01,0.01,0.02,0.02,0.04c0.29,0.01,0.59,0.01,0.9,0.02c-0.01,0.28-0.01,0.55-0.02,0.84c-0.07,0-0.13,0.01-0.2,0.01
			c-0.19,0-0.37,0-0.56-0.01c-0.12-0.01-0.15,0.04-0.16,0.15c-0.06,0.5-0.2,0.97-0.44,1.42c-0.06,0.1-0.11,0.13-0.22,0.08
			c-0.24-0.12-0.49-0.21-0.73-0.32c-0.05-0.02-0.1-0.05-0.17-0.08c0.23-0.4,0.4-0.8,0.46-1.27c-0.12,0-0.24,0-0.35-0.01
			c-0.32-0.01-0.63-0.01-0.95-0.02c-0.08,0-0.12,0.02-0.14,0.11c-0.1,0.38-0.22,0.75-0.42,1.1C45.43,44.23,44.11,44.11,43.52,43.43z
			" fill="#BFD647"/>
	</g>
	<path d="M56.17,19.99l-19.81-0.36l-0.8,43.27l19.81,0.36L56.17,19.99z M37.39,60.92l0.67-36.33c0,0,2.78,0.34,2.84-2.67l10.66,0.2
		c0,0,0.17,2.65,2.67,2.7l-0.55,33.62c0,0-3.21-0.35-3.06,2.81L37.39,60.92z" fill="#BFD647"/>
</g>
<g>
	<g>
		<path d="M60.92,59.83c-0.09-0.25-0.44-0.39-0.78-0.3c0.14,0.36,0.28,0.71,0.41,1.07C60.87,60.44,61.03,60.11,60.92,59.83z" fill="#BFD647"/>
		<path d="M58.8,58.43c-0.13-0.34-0.26-0.68-0.4-1.02c-0.29,0.13-0.45,0.46-0.35,0.73C58.14,58.38,58.51,58.52,58.8,58.43z" fill="#BFD647"/>
		<path d="M62.02,65.16c3.51-1.36,5.25-5.31,3.89-8.82c-1.36-3.51-5.31-5.25-8.82-3.89c-3.51,1.36-5.25,5.31-3.89,8.82
			C54.56,64.78,58.51,66.52,62.02,65.16z M56.86,57.43c0.24-0.47,0.62-0.79,1.06-1.04c0.02-0.01,0.04-0.02,0.07-0.04
			c-0.11-0.29-0.22-0.57-0.34-0.87c0.26-0.1,0.52-0.2,0.79-0.31c0.11,0.28,0.21,0.55,0.33,0.84c0.73-0.21,1.46-0.33,2.21-0.14
			c-0.02,0.38-0.04,0.75-0.06,1.13c-0.59-0.13-1.16-0.12-1.73,0.03c0.02,0.05,0.03,0.09,0.04,0.13c0.14,0.35,0.28,0.71,0.41,1.06
			c0.03,0.09,0.08,0.11,0.17,0.1c0.37-0.02,0.75-0.07,1.12-0.03c1.18,0.12,1.54,1.34,1.25,2.1c-0.2,0.53-0.59,0.89-1.07,1.17
			c-0.04,0.02-0.07,0.04-0.1,0.06c-0.01,0-0.01,0.01-0.03,0.03c0.11,0.27,0.21,0.55,0.33,0.84c-0.27,0.1-0.52,0.2-0.78,0.3
			c-0.03-0.06-0.06-0.12-0.08-0.18c-0.07-0.17-0.14-0.34-0.2-0.52c-0.04-0.12-0.09-0.13-0.2-0.1c-0.48,0.13-0.98,0.18-1.48,0.13
			c-0.12-0.01-0.16-0.05-0.16-0.17c0.02-0.27,0.01-0.53,0.02-0.8c0-0.06,0-0.11,0.01-0.18c0.45,0.07,0.89,0.06,1.35-0.06
			c-0.05-0.12-0.09-0.22-0.13-0.32c-0.11-0.3-0.23-0.59-0.34-0.89c-0.03-0.08-0.07-0.1-0.15-0.09c-0.39,0.05-0.78,0.08-1.18,0.03
			C56.84,59.51,56.45,58.24,56.86,57.43z" fill="#BFD647"/>
	</g>
	<path d="M83.35,60.26l-7.17-18.47L35.83,57.44L43,75.92L83.35,60.26z M38.35,58.39l33.88-13.15c0,0,0.74,2.7,3.54,1.62l3.86,9.94
		c0,0-2.39,1.16-1.48,3.49L46.82,72.51c0,0-0.9-3.1-3.75-1.77L38.35,58.39z" fill="#BFD647"/>
</g>
<g>
	<defs>
		<polygon id="SVGID_1_" points="55.88,31.84 55.57,49.94 75.09,42.46 84.49,31.24 66.8,16.78"/>
	</defs>
	<clipPath id="SVGID_00000128473948381940729650000010036889849244062081_">
		<use xlink:href="#SVGID_1_" style="overflow:visible;"/>
	</clipPath>
	<g style="clip-path:url(#SVGID_00000128473948381940729650000010036889849244062081_);">
		<g>
			<path d="M62.52,42.38c-0.2-0.17-0.57-0.12-0.83,0.12c0.29,0.24,0.59,0.48,0.88,0.73C62.77,42.94,62.75,42.58,62.52,42.38z" fill="#BFD647"/>
			<path d="M59.98,42.21c-0.28-0.23-0.56-0.46-0.85-0.69c-0.19,0.25-0.16,0.62,0.05,0.8C59.38,42.48,59.77,42.43,59.98,42.21z" fill="#BFD647"/>
			<path d="M66.09,46.49c2.39-2.91,1.97-7.21-0.94-9.6c-2.91-2.39-7.21-1.97-9.6,0.94c-2.39,2.91-1.97,7.21,0.94,9.6
				C59.4,49.82,63.7,49.4,66.09,46.49z M57.8,42.29c-0.02-0.52,0.15-0.99,0.41-1.43c0.01-0.02,0.02-0.04,0.04-0.07
				c-0.24-0.2-0.48-0.39-0.72-0.59c0.18-0.22,0.35-0.43,0.54-0.65c0.23,0.19,0.46,0.38,0.7,0.57c0.54-0.54,1.11-1,1.86-1.2
				c0.17,0.34,0.33,0.67,0.5,1.02c-0.57,0.17-1.07,0.46-1.5,0.88c0.04,0.04,0.07,0.07,0.1,0.09c0.29,0.24,0.59,0.48,0.88,0.73
				c0.07,0.06,0.12,0.06,0.2,0.01c0.32-0.2,0.62-0.43,0.96-0.58c1.09-0.48,2,0.42,2.12,1.22c0.09,0.56-0.08,1.06-0.36,1.54
				c-0.02,0.04-0.04,0.07-0.06,0.11c0,0.01,0,0.02-0.01,0.04c0.23,0.19,0.46,0.38,0.7,0.57c-0.18,0.22-0.35,0.43-0.53,0.65
				c-0.05-0.04-0.11-0.08-0.16-0.12c-0.14-0.12-0.29-0.23-0.43-0.36c-0.09-0.08-0.14-0.07-0.22,0.01c-0.36,0.36-0.76,0.64-1.23,0.84
				c-0.11,0.05-0.17,0.04-0.22-0.07c-0.12-0.24-0.25-0.47-0.38-0.71c-0.03-0.05-0.05-0.1-0.08-0.16c0.43-0.17,0.81-0.38,1.14-0.71
				c-0.1-0.08-0.18-0.15-0.27-0.22c-0.24-0.2-0.49-0.4-0.73-0.6c-0.06-0.05-0.11-0.05-0.17,0c-0.32,0.23-0.64,0.45-1.01,0.6
				C58.8,44.11,57.84,43.2,57.8,42.29z" fill="#BFD647"/>
		</g>
		<path d="M82.27,31.76L66.96,19.18L39.48,52.62L54.79,65.2L82.27,31.76z M42.13,52.21L65.2,24.13c0,0,1.97,1.99,3.88-0.33
			l8.24,6.77c0,0-1.51,2.18,0.42,3.77L56.45,60.36c0,0-2.31-2.26-4.14,0.3L42.13,52.21z" fill="#BFD647"/>
	</g>
</g>
</svg>
