<svg xmlns="http://www.w3.org/2000/svg" xmlns:xlink="http://www.w3.org/1999/xlink" version="1.1" style="enable-background:new 0 0 100 100;" xml:space="preserve" width="100" height="100"><rect id="backgroundrect" width="100%" height="100%" x="0" y="0" fill="none" stroke="none"/>
<style type="text/css">
	.st0{fill:#FFFFFF;}
</style>



<g class="currentLayer" style=""><title>Layer 1</title><path fill="#bfd647" stroke="none" stroke-width="2" stroke-dasharray="none" stroke-linejoin="round" stroke-linecap="butt" stroke-dashoffset="" fill-rule="nonzero" opacity="1" marker-start="" marker-mid="" marker-end="" d="M5.654135323381357,49.0939869606789 C5.654135323381357,26.257197665163247 25.317824760787676,7.759398335795588 49.593984560054714,7.759398335795588 C73.87014435932176,7.759398335795588 93.53383379672806,26.257197665163247 93.53383379672806,49.0939869606789 C93.53383379672806,71.9307762561945 73.87014435932176,90.42857558556219 49.593984560054714,90.42857558556219 C25.317824760787676,90.42857558556219 5.654135323381357,71.9307762561945 5.654135323381357,49.0939869606789 z" id="svg_4" class="" fill-opacity="1"/><circle cx="34.06999969482422" cy="39.2599983215332" r="12.510000228881836" id="svg_1"/><path d="M77.86,45.34c0,3.72,0,7.43,0,11.15c0,7.04-4.3,13.27-10.85,15.8c-2.69,1.04-5.48,1.19-8.31,1.07  c-0.98-0.04-1.83-0.99-1.84-1.98c-0.02-1.46-0.02-2.93,0-4.39c0.02-1.12,0.95-1.96,2.09-2.01c1.39-0.06,2.81-0.03,4.17-0.28  c3.07-0.57,5.83-3.58,6.19-6.67c0.12-1.05,0.19-2.15,0.03-3.18c-0.24-1.52-1.54-2.45-3.1-2.45c-2.39-0.01-4.77-0.04-7.16,0.01  c-3.52,0.08-6.51-2.86-6.44-6.46c0.07-4.11,0.02-8.22,0.02-12.33c0-3.68,2.72-6.41,6.4-6.41c4.18,0,8.36,0,12.54,0  c3.48,0,6.28,2.79,6.28,6.27C77.86,37.42,77.86,41.38,77.86,45.34z" id="svg_2"/><path d="M46.44,40.1c0,1.56-0.82,15.05-0.82,16.61c0,5.21-1.95,9.56-5.85,12.98c-2.6,2.28-5.66,3.65-9.14,3.95  c-1.3,0.11-2.62,0.12-3.93,0.13c-1.15,0.01-2.08-0.93-2.09-2.08c-0.01-1.4-0.01-2.8,0-4.2c0.01-1.2,0.92-2.07,2.12-2.12  c1.41-0.06,2.86-0.01,4.23-0.29c3.1-0.64,5.7-3.56,6.11-6.69c0.11-0.86,0.15-1.74,0.13-2.61c-0.04-1.66-2.24-4.04-3.91-4.05" id="svg_3"/></g></svg>