<?xml version="1.0" encoding="utf-8"?>
<!-- Generator: Adobe Illustrator 26.0.3, SVG Export Plug-In . SVG Version: 6.00 Build 0)  -->
<svg version="1.1" id="Capa_1" xmlns="http://www.w3.org/2000/svg" xmlns:xlink="http://www.w3.org/1999/xlink" x="0px" y="0px"
	 viewBox="0 0 100 100" style="enable-background:new 0 0 100 100;" xml:space="preserve">
<path d="M84.87,61.93c-0.33,1.74-1.4,3.08-2.43,4.45c-2.72,3.61-5.43,7.23-8.14,10.84c-2.98,3.98-6.97,5.96-11.94,5.96
	c-7.22,0-14.43-0.01-21.65,0c-3.17,0.01-6.25-0.44-9.2-1.63c-0.43-0.17-0.72-0.13-1.06,0.18c-1.13,1.02-2.5,1.43-3.99,1.44
	c-2.63,0.02-5.26,0.01-7.88,0c-1.3-0.01-2.13-0.83-2.13-2.14c-0.01-7.93-0.01-15.86,0-23.78c0-1.31,0.83-2.13,2.14-2.13
	c2.67-0.01,5.35-0.02,8.02,0c2.05,0.02,3.67,0.92,4.96,2.58c0.43-0.32,0.84-0.65,1.28-0.94c5.48-3.65,12.22-3.24,17.29,1.14
	c1.02,0.88,2.03,1.28,3.37,1.24c2.92-0.08,5.84-0.01,8.75-0.03c2.96-0.02,5.08,1.22,6.22,4c0.02,0.04,0.06,0.06,0.25,0.26
	c0.13-0.21,0.23-0.43,0.39-0.61c1.72-1.86,3.44-3.73,5.19-5.57c2.06-2.16,4.72-2.68,7.3-1.41c1.56,0.77,2.53,2.06,3.03,3.72
	c0.08,0.27,0.17,0.54,0.25,0.81C84.87,60.86,84.87,61.39,84.87,61.93z M50.75,79.16c3.85,0,7.71-0.02,11.56,0.01
	c3.7,0.03,6.62-1.44,8.82-4.41c2.99-4.02,6.01-8.02,9.01-12.02c0.15-0.2,0.3-0.39,0.42-0.6c0.65-1.11,0.09-2.53-1.14-2.91
	c-0.93-0.29-1.64,0.09-2.26,0.76c-2.73,2.94-5.48,5.85-8.19,8.81c-1.48,1.62-3.24,2.39-5.43,2.37c-3.83-0.04-7.66-0.01-11.49-0.01
	c-1.09,0-2.18,0.01-3.27,0c-1.3-0.01-2.21-0.83-2.22-1.99c-0.01-1.16,0.9-2,2.19-2.02c0.27,0,0.53,0,0.8,0c4.34,0,8.69,0,13.03,0
	c0.9,0,1.61-0.32,2.02-1.15c0.68-1.38-0.33-2.85-1.98-2.86c-3.3-0.01-6.59,0-9.89-0.01c-0.47,0-0.94-0.02-1.4-0.08
	c-1.44-0.19-2.55-0.99-3.59-1.92c-2.68-2.42-5.78-3.3-9.33-2.53c-2.12,0.46-3.77,1.73-5.37,3.1c-0.32,0.27-0.44,0.54-0.44,0.96
	c0.01,4.83,0.02,9.67,0,14.5c0,0.44,0.16,0.6,0.54,0.75c2.27,0.88,4.63,1.26,7.06,1.26C43.71,79.17,47.23,79.16,50.75,79.16z
	 M20.46,79.16c2.05,0,4.03,0.01,6,0c1.3-0.01,2.12-0.83,2.12-2.14c0.01-5.25,0.01-10.5,0-15.75c0-1.34-0.83-2.13-2.19-2.14
	c-1.82-0.01-3.65,0-5.47,0c-0.15,0-0.3,0.03-0.46,0.04C20.46,65.83,20.46,72.45,20.46,79.16z" fill="#EA0C73"/>
<path d="M55.86,14.75c1.16,0.22,2.33,0.37,3.46,0.66c6.8,1.74,12.18,7.74,13.12,14.73c1,7.42-1.6,13.39-7.64,17.78
	c-6.02,4.37-14.77,4.22-20.69-0.28c-5.49-4.16-7.96-9.73-7.38-16.59c0.68-8.06,7.15-14.86,15.15-16.05
	c0.48-0.07,0.96-0.16,1.44-0.25C54.17,14.75,55.01,14.75,55.86,14.75z M50.77,34.97c-0.12,2.24,0.74,7.02,1.73,9.13
	c0.44,0.93,1.03,1.8,1.61,2.66c0.29,0.43,0.73,0.42,1.06,0.01c0.42-0.52,0.87-1.03,1.16-1.62c1.56-3.2,2.04-6.64,2.25-10.18
	C55.96,34.97,53.36,34.97,50.77,34.97z M58.66,30.89c-0.18-1.49-0.29-2.93-0.54-4.35c-0.4-2.35-0.96-4.66-2.29-6.7
	c-0.89-1.37-1.46-1.36-2.36,0.03c-0.99,1.51-1.58,3.19-1.91,4.94c-0.38,2-0.65,4.01-0.98,6.07C53.36,30.89,55.93,30.89,58.66,30.89z
	 M68.49,30.9c-0.55-4.93-4.31-9.32-7.81-10.66c0.43,1.7,0.97,3.44,1.3,5.22c0.34,1.78,0.48,3.61,0.72,5.44
	C64.62,30.9,66.56,30.9,68.49,30.9z M40.77,34.96c0.87,4.93,3.49,8.51,8.07,10.86c-1.4-3.59-1.92-7.19-2.15-10.86
	C44.68,34.96,42.75,34.96,40.77,34.96z M62.62,34.95c-0.2,3.7-0.76,7.29-2.13,10.87c4.56-2.38,7.19-5.94,8.04-10.87
	C66.55,34.95,64.64,34.95,62.62,34.95z M48.83,20.04c-4.57,2.37-7.19,5.94-8.06,10.86c1.99,0,3.92,0,5.92,0
	C46.9,27.22,47.44,23.63,48.83,20.04z" fill="#EA0C73"/>
<path d="M50.75,79.16c-3.52,0-7.04,0-10.56,0c-2.42,0-4.78-0.39-7.06-1.26c-0.38-0.15-0.55-0.3-0.54-0.75
	c0.02-4.83,0.02-9.66,0-14.5c0-0.42,0.12-0.69,0.44-0.96c1.6-1.37,3.25-2.64,5.37-3.1c3.55-0.77,6.65,0.11,9.33,2.53
	c1.04,0.94,2.16,1.73,3.59,1.92c0.46,0.06,0.93,0.08,1.4,0.08c3.3,0.01,6.59-0.01,9.89,0.01c1.65,0.01,2.66,1.48,1.98,2.86
	c-0.41,0.83-1.12,1.15-2.02,1.15c-4.34-0.01-8.69,0-13.03,0c-0.27,0-0.53,0-0.8,0c-1.29,0.02-2.2,0.86-2.19,2.02
	c0.01,1.16,0.92,1.98,2.22,1.99c1.09,0.01,2.18,0,3.27,0c3.83,0,7.66-0.03,11.49,0.01c2.19,0.02,3.96-0.75,5.43-2.37
	c2.7-2.96,5.46-5.87,8.19-8.81c0.62-0.67,1.33-1.05,2.26-0.76c1.23,0.38,1.79,1.8,1.14,2.91c-0.12,0.21-0.27,0.4-0.42,0.6
	c-3,4.01-6.03,8-9.01,12.02c-2.2,2.97-5.12,4.44-8.82,4.41C58.45,79.14,54.6,79.16,50.75,79.16z" fill="#EA0C73"/>
</svg>
