<svg xmlns="http://www.w3.org/2000/svg" xmlns:xlink="http://www.w3.org/1999/xlink" version="1.1" style="" xml:space="preserve" width="100" height="100"><rect id="backgroundrect" width="100%" height="100%" x="0" y="0" fill="none" stroke="none"/>
<style type="text/css">
	.st0{fill:#FFFFFF;}
	.st1{fill:#FF0000;}
</style>

<g class="currentLayer" style=""><title>Layer 1</title>
	<path class="st0" d="M57.55,50.35L43.8,67.74c-0.68,0.86-0.53,2.13,0.33,2.81l10.21,8.07c0.86,0.68,2.13,0.53,2.81-0.33L70.9,60.91   c0.68-0.86,0.53-2.13-0.33-2.81l-10.21-8.07C59.5,49.34,58.24,49.49,57.55,50.35z M62,63.82c0.12,0.1,0.19,0.24,0.19,0.39   c0,0.11-0.04,0.22-0.11,0.31l-8.16,10.11c-0.17,0.22-0.49,0.25-0.7,0.08c-0.22-0.18-0.25-0.49-0.08-0.7l8.16-10.11   C61.47,63.68,61.79,63.64,62,63.82z M55.39,62.6c0.13,0.1,0.19,0.25,0.19,0.4c0,0.11-0.03,0.21-0.1,0.31l-6.27,8.09   c-0.17,0.22-0.48,0.26-0.7,0.09c-0.22-0.17-0.26-0.48-0.09-0.7l6.27-8.09C54.86,62.47,55.17,62.43,55.39,62.6z M54.99,59.1   c0.12,0.1,0.19,0.24,0.19,0.39c0,0.11-0.04,0.22-0.11,0.31l-8.02,10.11c-0.17,0.22-0.49,0.25-0.7,0.08   c-0.22-0.17-0.25-0.49-0.08-0.7l8.02-10.11C54.46,58.96,54.77,58.92,54.99,59.1z" id="svg_2" stroke-opacity="1" stroke="#bfd647"/>
	<path d="M91.37,67.82v-13.6c0-1.1-0.9-2-2-2h-3.48c-1.1,0-2,0.9-2,2v13.6c0,1.1,0.9,2,2,2h3.48   C90.47,69.82,91.37,68.92,91.37,67.82z" id="svg_3" class="" fill="#000000" stroke="#ffffff" stroke-opacity="1" fill-opacity="1"/>
	<path d="M84.13,55.55c0,0-6.07-2.29-9.71-2.29s-15.1,1.35-15.1,1.35s-1.89-0.4-1.48,1.75c0.4,2.16,5.53,3.1,7.01,3.1   s5.8,0.94,4.85,3.37l-6.61,8.09c0,0,4.58,4.31,9.17,3.1c4.58-1.21,11.87-7.55,11.87-7.55V55.55z" id="svg_4" class="" fill="#ffffff" fill-opacity="1"/>
	
		
		
	
	<path d="M9.1,36.39v13.6c0,1.1,0.9,2,2,2h3.48c1.1,0,2-0.9,2-2v-13.6c0-1.1-0.9-2-2-2H11.1C10,34.39,9.1,35.29,9.1,36.39z" id="svg_11" class="" fill="#000000" stroke="#ffffff" stroke-opacity="1" fill-opacity="1"/>
	<path d="M16.35,48.67c0,0,6.07,2.29,9.71,2.29s15.1-1.35,15.1-1.35s1.89,0.4,1.48-1.75c-0.4-2.16-5.53-3.1-7.01-3.1   s-5.8-0.94-4.85-3.37l6.61-8.09c0,0-4.58-4.31-9.17-3.1c-4.58,1.21-11.87,7.55-11.87,7.55V48.67z" id="svg_12" class="" fill="#ffffff" fill-opacity="1"/>
<g class="" id="svg_1" fill="none"><g id="svg_6" class="" stroke-opacity="1" stroke="#bfd647" fill="none">
			<path class="st0" d="M38.01,43.11c0.16,0.13,0.44,0.09,0.64-0.1c-0.23-0.19-0.46-0.37-0.69-0.56     C37.81,42.68,37.84,42.96,38.01,43.11z" id="svg_7" stroke="#bfd647" fill="none"/>
			<path class="st0" d="M39.98,43.23c0.22,0.18,0.44,0.36,0.66,0.53c0.15-0.2,0.12-0.48-0.04-0.62     C40.45,43.02,40.15,43.06,39.98,43.23z" id="svg_8" stroke="#bfd647" fill="none"/>
			<path class="st0" d="M35.22,39.95c-1.84,2.27-1.49,5.6,0.78,7.44c2.27,1.84,5.6,1.49,7.44-0.78c1.84-2.27,1.49-5.6-0.78-7.44     C40.39,37.33,37.06,37.68,35.22,39.95z M41.67,43.16c0.02,0.41-0.11,0.77-0.31,1.11c-0.01,0.02-0.02,0.03-0.03,0.06     c0.19,0.15,0.37,0.3,0.56,0.45c-0.14,0.17-0.27,0.34-0.41,0.51c-0.18-0.15-0.36-0.29-0.54-0.44c-0.41,0.42-0.86,0.78-1.44,0.94     c-0.13-0.26-0.26-0.52-0.39-0.79c0.44-0.14,0.83-0.36,1.16-0.69c-0.03-0.03-0.05-0.05-0.08-0.07c-0.23-0.19-0.46-0.37-0.69-0.56     c-0.06-0.05-0.09-0.04-0.15,0c-0.24,0.16-0.48,0.33-0.74,0.45c-0.84,0.38-1.55-0.31-1.65-0.94c-0.07-0.44,0.06-0.83,0.27-1.2     c0.02-0.03,0.03-0.05,0.05-0.08c0-0.01,0-0.01,0.01-0.03c-0.18-0.14-0.36-0.29-0.54-0.44c0.14-0.17,0.27-0.33,0.41-0.51     c0.04,0.03,0.08,0.06,0.12,0.09c0.11,0.09,0.23,0.18,0.33,0.27c0.07,0.06,0.11,0.05,0.17-0.01c0.27-0.28,0.59-0.5,0.95-0.65     c0.08-0.04,0.13-0.03,0.17,0.06c0.09,0.19,0.2,0.36,0.3,0.55c0.02,0.04,0.04,0.08,0.07,0.13c-0.33,0.13-0.63,0.3-0.88,0.56     c0.08,0.06,0.14,0.12,0.21,0.17c0.19,0.15,0.38,0.31,0.57,0.47c0.05,0.04,0.08,0.04,0.14,0c0.24-0.18,0.5-0.36,0.78-0.47     C40.88,41.76,41.64,42.46,41.67,43.16z" id="svg_9" stroke="#bfd647" fill="none"/>
		</g><path class="st0" d="M22.75,51.46l11.94,9.68l21.14-26.08l-11.94-9.68L22.75,51.46z M53.77,35.39l-17.75,21.9    c0,0-1.54-1.53-3.01,0.28l-6.42-5.21c0,0,1.16-1.7-0.35-2.92l16.38-20.3c0,0,1.8,1.74,3.21-0.26L53.77,35.39z" id="svg_10" stroke-opacity="1" stroke="#bfd647" fill="none"/></g></g></svg>