<?xml version="1.0" encoding="utf-8"?>
<!-- Generator: Adobe Illustrator 26.0.3, SVG Export Plug-In . SVG Version: 6.00 Build 0)  -->
<svg version="1.1" id="Capa_1" xmlns="http://www.w3.org/2000/svg" xmlns:xlink="http://www.w3.org/1999/xlink" x="0px" y="0px"
	 viewBox="0 0 100 100" style="enable-background:new 0 0 100 100;" xml:space="preserve">
<style type="text/css">
	.st0{fill:#FFFFFF;}
	.st1{fill:#FF0000;}
</style>
<g>
	<path d="M51.72,45.54c-3.75,0-6.78,3.04-6.78,6.78c0,3.75,3.04,6.78,6.78,6.78s6.78-3.04,6.78-6.78
		C58.51,48.58,55.47,45.54,51.72,45.54z M55.55,49.21c-2.15,1.32-4.78,6.89-4.81,6.95c-0.07,0.14-0.22,0.23-0.38,0.22
		c-0.01,0-0.02,0-0.03,0c-0.15-0.02-0.27-0.13-0.3-0.28c-0.32-1.19-1.79-2.23-1.8-2.24c-0.17-0.12-0.22-0.36-0.1-0.53
		c0.12-0.17,0.36-0.22,0.53-0.1c0.06,0.04,1.13,0.8,1.76,1.86c0.82-1.62,2.88-5.39,4.73-6.53c0.18-0.11,0.41-0.05,0.52,0.13
		C55.78,48.87,55.73,49.1,55.55,49.21z" fill="#FFFFFF"/>
</g>
<path class="st0" d="M82.77,31.13h-11c-0.69,0-1.26,0.57-1.26,1.26v15.89c0,0.69,0.57,1.26,1.26,1.26h11c0.69,0,1.26-0.57,1.26-1.26
	V32.39C84.03,31.7,83.46,31.13,82.77,31.13z M82.21,40.44h-9.91c-0.12,0-0.21-0.1-0.21-0.21c0-0.12,0.1-0.21,0.21-0.21h9.91
	c0.12,0,0.21,0.1,0.21,0.21C82.43,40.35,82.33,40.44,82.21,40.44z M82.21,38.36h-9.91c-0.12,0-0.21-0.1-0.21-0.21
	c0-0.12,0.1-0.21,0.21-0.21h9.91c0.12,0,0.21,0.1,0.21,0.21C82.43,38.27,82.33,38.36,82.21,38.36z M82.21,36.28h-9.91
	c-0.12,0-0.21-0.1-0.21-0.21c0-0.12,0.1-0.21,0.21-0.21h9.91c0.12,0,0.21,0.1,0.21,0.21C82.43,36.18,82.33,36.28,82.21,36.28z
	 M82.21,34.28h-9.91c-0.12,0-0.21-0.1-0.21-0.21c0-0.12,0.1-0.21,0.21-0.21h9.91c0.12,0,0.21,0.1,0.21,0.21
	C82.43,34.18,82.33,34.28,82.21,34.28z"/>
<path d="M87.45,45.63h-8.99v3.49H76.5v-3.49h-9.11c-0.69,0-1.26,0.57-1.26,1.26v20.31c0,0.69,0.57,1.26,1.26,1.26h20.06
	c0.69,0,1.26-0.57,1.26-1.26V46.89C88.71,46.2,88.14,45.63,87.45,45.63z" fill="#BFD647"/>
<path class="st0" d="M30.38,31.64h-11c-0.69,0-1.26,0.57-1.26,1.26v15.89c0,0.69,0.57,1.26,1.26,1.26h11c0.69,0,1.26-0.57,1.26-1.26
	V32.9C31.64,32.21,31.08,31.64,30.38,31.64z M29.83,40.96h-9.91c-0.12,0-0.21-0.1-0.21-0.21c0-0.12,0.1-0.21,0.21-0.21h9.91
	c0.12,0,0.21,0.1,0.21,0.21C30.04,40.86,29.94,40.96,29.83,40.96z M29.83,38.87h-9.91c-0.12,0-0.21-0.1-0.21-0.21
	c0-0.12,0.1-0.21,0.21-0.21h9.91c0.12,0,0.21,0.1,0.21,0.21C30.04,38.78,29.94,38.87,29.83,38.87z M29.83,36.79h-9.91
	c-0.12,0-0.21-0.1-0.21-0.21c0-0.12,0.1-0.21,0.21-0.21h9.91c0.12,0,0.21,0.1,0.21,0.21C30.04,36.69,29.94,36.79,29.83,36.79z
	 M29.83,34.79h-9.91c-0.12,0-0.21-0.1-0.21-0.21c0-0.12,0.1-0.21,0.21-0.21h9.91c0.12,0,0.21,0.1,0.21,0.21
	C30.04,34.69,29.94,34.79,29.83,34.79z"/>
<path d="M35.06,46.14h-8.99v3.49h-1.96v-3.49H15c-0.69,0-1.26,0.57-1.26,1.26v20.31c0,0.69,0.57,1.26,1.26,1.26h20.06
	c0.69,0,1.26-0.57,1.26-1.26V47.4C36.32,46.71,35.75,46.14,35.06,46.14z" fill="#BFD647"/>
<g>
	<g>
		<path d="M39,31.59c-0.12,0-0.24-0.03-0.35-0.11c-0.29-0.19-0.37-0.59-0.17-0.87c0.08-0.11,7.74-11.17,24.47-2.07
			c0.31,0.17,0.42,0.55,0.25,0.86c-0.17,0.31-0.55,0.42-0.86,0.25c-15.73-8.55-22.75,1.56-22.82,1.67C39.4,31.5,39.2,31.59,39,31.59
			z" fill="#BFD647"/>
	</g>
	<path d="M60.52,32.04c0.49-0.09,4.43-0.85,4.43-0.85c0.34-0.07,0.57-0.4,0.5-0.74c0,0-0.72-3.75-0.81-4.22L60.52,32.04z" fill="#BFD647"/>
</g>
<g>
	<g>
		<path d="M64.32,73.68c0.12,0,0.24,0.03,0.35,0.11c0.29,0.19,0.37,0.59,0.17,0.87c-0.08,0.11-7.74,11.17-24.47,2.07
			c-0.31-0.17-0.42-0.55-0.25-0.86c0.17-0.31,0.55-0.42,0.86-0.25c15.73,8.55,22.75-1.56,22.82-1.67
			C63.92,73.78,64.12,73.68,64.32,73.68z" fill="#BFD647"/>
	</g>
	<path d="M42.8,73.23c-0.49,0.09-4.43,0.85-4.43,0.85c-0.34,0.07-0.57,0.4-0.5,0.74c0,0,0.72,3.75,0.81,4.22L42.8,73.23z" fill="#BFD647"/>
</g>
</svg>
