<?xml version="1.0" encoding="utf-8"?>
<!-- Generator: Adobe Illustrator 26.0.3, SVG Export Plug-In . SVG Version: 6.00 Build 0)  -->
<svg version="1.1" id="Capa_1" xmlns="http://www.w3.org/2000/svg" xmlns:xlink="http://www.w3.org/1999/xlink" x="0px" y="0px"
	 viewBox="0 0 100 100" style="enable-background:new 0 0 100 100;" xml:space="preserve">
<style type="text/css">
	.st0{fill:#FFFFFF;}
	.st1{fill:none;stroke:#000000;stroke-width:3;stroke-miterlimit:10;}
	.st2{clip-path:url(#SVGID_00000158742634309231368970000005190016996311213745_);}
</style>
<path d="M85.42,42.32L69.99,26.89L69.9,38.06H35.96c-0.65,0-1.18,0.53-1.18,1.18v7.03c0,0.65,0.53,1.18,1.18,1.18h33.87l-0.09,12.16
	c0.09-0.05,0.17-0.11,0.25-0.19l15.44-15.44C85.88,43.53,85.88,42.78,85.42,42.32z"/>
<path d="M14.12,58.03l15.44,15.44l0.09-11.18h33.94c0.65,0,1.18-0.53,1.18-1.18v-7.03c0-0.65-0.53-1.18-1.18-1.18H29.71l0.09-12.16
	c-0.09,0.05-0.17,0.11-0.25,0.19L14.12,56.36C13.66,56.82,13.66,57.57,14.12,58.03z"/>
</svg>
