<svg xmlns="http://www.w3.org/2000/svg" xmlns:xlink="http://www.w3.org/1999/xlink" version="1.1" style="" xml:space="preserve" width="100" height="100"><rect id="backgroundrect" width="100%" height="100%" x="0" y="0" fill="none" stroke="none"/>
<style type="text/css">
	.st0{fill:#FFFFFF;}
</style>














<g class="currentLayer" style=""><title>Layer 1</title><g id="svg_1" class="" stroke-opacity="1" stroke="#bfd647" fill="none">
	<path d="M73.17,70.94H28.65c-1.1,0-2-0.9-2-2v-4.05c0-1.1,0.9-2,2-2h44.52c1.1,0,2,0.9,2,2v4.05   C75.17,70.04,74.27,70.94,73.17,70.94z M73.17,68.94v1V68.94L73.17,68.94L73.17,68.94z M28.65,64.89v4.05h44.51l0-4.05H28.65z" id="svg_2" stroke="#bfd647" fill="none"/>
</g><g id="svg_3" class="" stroke="#bfd647" stroke-opacity="1" fill="none">
	<path d="M73.17,82.83H28.65c-1.1,0-2-0.9-2-2v-4.05c0-1.1,0.9-2,2-2h44.52c1.1,0,2,0.9,2,2v4.05   C75.17,81.93,74.27,82.83,73.17,82.83z M73.17,80.83v1V80.83L73.17,80.83L73.17,80.83z M28.65,76.79v4.05h44.51l0-4.05H28.65z" id="svg_4" stroke="#bfd647" stroke-opacity="1" fill="none"/>
</g><path d="M71.47,19.18c-3.75,0-6.78,3.04-6.78,6.78c0,3.75,3.04,6.78,6.78,6.78s6.78-3.04,6.78-6.78  C78.26,22.22,75.22,19.18,71.47,19.18z M75.3,22.85c-2.15,1.32-4.78,6.89-4.81,6.95c-0.07,0.14-0.22,0.23-0.38,0.22  c-0.01,0-0.02,0-0.03,0c-0.15-0.02-0.27-0.13-0.3-0.28c-0.32-1.19-1.79-2.23-1.8-2.24c-0.17-0.12-0.22-0.36-0.1-0.53  c0.12-0.17,0.36-0.22,0.53-0.1c0.06,0.04,1.13,0.8,1.76,1.86c0.82-1.62,2.88-5.39,4.73-6.53c0.18-0.11,0.41-0.05,0.52,0.13  C75.54,22.51,75.48,22.74,75.3,22.85z" id="svg_5" class="" fill="none" stroke-opacity="1" stroke="#bfd647"/><path d="M50.17,47.84c6.8,0,12.63,4.32,15.23,10.51c2.47-3.23,3.95-7.25,3.95-11.62c0-10.59-8.58-19.17-19.17-19.17  s-19.17,8.58-19.17,19.17c0,4.37,1.48,8.39,3.95,11.62C37.54,52.17,43.37,47.84,50.17,47.84z M50.17,33.83  c3.49,0,6.32,2.83,6.32,6.32s-2.83,6.32-6.32,6.32c-3.49,0-6.32-2.83-6.32-6.32S46.68,33.83,50.17,33.83z" id="svg_6" class="" stroke-opacity="1" stroke="#bfd647" fill="none"/><path d="M25.18,52.03c0,0,0.19,1.85,1.92,2.68c0,0-1.44,0.62-1.92,2.68c0,0-0.38-1.99-1.92-2.68C23.26,54.72,24.63,54.3,25.18,52.03  z" id="svg_7" class="" fill-opacity="1" fill="#bfd647"/><path d="M73.52,35.65c0,0,0.19,1.85,1.92,2.68c0,0-1.44,0.62-1.92,2.68c0,0-0.38-1.99-1.92-2.68C71.6,38.33,72.97,37.92,73.52,35.65  z" id="svg_8" class="" fill-opacity="1" fill="#bfd647"/><path d="M56.33,20.48c0,0,0.19,1.85,1.92,2.68c0,0-1.44,0.62-1.92,2.68c0,0-0.38-1.99-1.92-2.68  C54.41,23.16,55.78,22.75,56.33,20.48z" id="svg_9" class="" fill-opacity="1" fill="#bfd647"/><path d="M83.63,45.16c0,0,0.19,1.85,1.92,2.68c0,0-1.44,0.62-1.92,2.68c0,0-0.38-1.99-1.92-2.68  C81.71,47.84,83.08,47.43,83.63,45.16z" id="svg_10" class="" fill-opacity="1" fill="#bfd647"/><path d="M30.44,27.56c0,0,0.19,1.85,1.92,2.68c0,0-1.44,0.62-1.92,2.68c0,0-0.38-1.99-1.92-2.68  C28.52,30.24,29.89,29.83,30.44,27.56z" id="svg_11" class="" fill-opacity="1" fill="#bfd647"/><path d="M74.13,53.04c0,0,0.19,1.85,1.92,2.68c0,0-1.44,0.62-1.92,2.68c0,0-0.38-1.99-1.92-2.68  C72.21,55.73,73.58,55.32,74.13,53.04z" id="svg_12" class="" fill-opacity="1" fill="#bfd647"/><path d="M19.11,39.9c0,0,0.19,1.85,1.92,2.68c0,0-1.44,0.62-1.92,2.68c0,0-0.38-1.99-1.92-2.68C17.19,42.58,18.56,42.17,19.11,39.9z  " id="svg_13" class=""/><path d="M19.11,39.9 c0,0 0.19000000000000003,1.85 1.92,2.68 c0,0 -1.44,0.6200000000000001 -1.92,2.68 c0,0 -0.38000000000000006,-1.99 -1.92,-2.68 C17.19,42.58 18.56,42.17 19.11,39.9 z" class="" id="svg_17" fill-opacity="1" fill="#bfd647"/><path d="M42.98,13.61c0,0,0.19,1.85,1.92,2.68c0,0-1.44,0.62-1.92,2.68c0,0-0.38-1.99-1.92-2.68  C41.06,16.29,42.43,15.88,42.98,13.61z" id="svg_14" class="" fill-opacity="1" fill="#bfd647"/><path d="M52.57,67.2H31.03c-0.11,0-0.2-0.09-0.2-0.2l0,0c0-0.11,0.09-0.2,0.2-0.2h21.54c0.11,0,0.2,0.09,0.2,0.2l0,0  C52.78,67.11,52.68,67.2,52.57,67.2z" id="svg_15" class="" stroke-opacity="1" stroke="#bfd647"/><path d="M52.98,79.03H31.44c-0.11,0-0.2-0.09-0.2-0.2l0,0c0-0.11,0.09-0.2,0.2-0.2h21.54c0.11,0,0.2,0.09,0.2,0.2l0,0  C53.18,78.94,53.09,79.03,52.98,79.03z" id="svg_16" class="" stroke-opacity="1" stroke="#bfd647"/></g></svg>