<svg xmlns="http://www.w3.org/2000/svg" xmlns:xlink="http://www.w3.org/1999/xlink" version="1.1" style="" xml:space="preserve" width="100" height="100"><rect id="backgroundrect" width="100%" height="100%" x="0" y="0" fill="none" stroke="none"/>
<style type="text/css">
	.st0{fill:#FFFFFF;}
	.st1{fill:none;stroke:#000000;stroke-width:3;stroke-miterlimit:10;}
	.st2{clip-path:url(#SVGID_00000173866767634166863120000001135682312893839768_);}
</style>



<g class="currentLayer" style=""><title>Layer 1</title><g id="svg_1" class="" stroke-opacity="1" stroke="#bfd647" fill="none">
	<g id="svg_2" stroke="#bfd647" fill="none">
		<path d="M48.81,48.44c-0.01,0.38,0.38,0.73,0.87,0.8c0-0.54,0-1.08,0-1.61C49.19,47.66,48.82,48.01,48.81,48.44z" id="svg_3" stroke="#bfd647" fill="none"/>
		<path d="M50.9,51.37c0,0.52,0,1.03,0,1.55c0.45-0.02,0.83-0.38,0.83-0.78C51.73,51.78,51.33,51.4,50.9,51.37z" id="svg_4" stroke="#bfd647" fill="none"/>
		<path d="M50.09,40.85c-5.32,0-9.64,4.32-9.64,9.64s4.32,9.64,9.64,9.64s9.64-4.32,9.64-9.64S55.41,40.85,50.09,40.85z     M52.94,53.68c-0.55,0.5-1.21,0.72-1.93,0.83c-0.03,0-0.06,0.01-0.12,0.02c0,0.44,0,0.87,0,1.31c-0.4,0-0.79,0-1.19,0    c0-0.42,0-0.84,0-1.27c-1.07-0.1-2.09-0.31-2.98-0.95c0.22-0.49,0.44-0.97,0.66-1.46c0.71,0.47,1.46,0.75,2.3,0.85    c0.01-0.08,0.01-0.13,0.01-0.19c0-0.54,0-1.08,0-1.61c0-0.13-0.04-0.18-0.17-0.22c-0.5-0.17-1.03-0.3-1.49-0.54    c-1.5-0.76-1.34-2.56-0.57-3.41c0.54-0.6,1.24-0.87,2.01-0.99c0.06-0.01,0.11-0.02,0.17-0.03c0.01,0,0.02-0.01,0.05-0.03    c0-0.41,0-0.84,0-1.28c0.4,0,0.78,0,1.19,0c0,0.09,0.01,0.19,0.01,0.28c0,0.26,0.01,0.53,0,0.79c-0.01,0.17,0.06,0.21,0.21,0.23    c0.71,0.07,1.38,0.26,2.01,0.59c0.15,0.08,0.19,0.15,0.12,0.31c-0.16,0.34-0.29,0.7-0.43,1.05c-0.03,0.08-0.07,0.15-0.1,0.24    c-0.57-0.32-1.14-0.54-1.8-0.61c0,0.18,0,0.33,0,0.49c0,0.45,0,0.9,0,1.34c0,0.12,0.04,0.17,0.15,0.19    c0.54,0.14,1.07,0.29,1.56,0.57C54.03,50.95,53.89,52.82,52.94,53.68z" id="svg_5" stroke="#bfd647" fill="none"/>
	</g>
	<path d="M19.48,36.4v28.01h61.18V36.4H19.48z M77.83,61.89H26.46c0,0,0.4-3.94-3.84-3.94V42.88c0,0,3.74-0.3,3.74-3.84l47.53-0.1   c0,0-0.4,4.55,4.04,4.25L77.83,61.89z" id="svg_6" stroke="#bfd647" fill="none"/>
</g><path d="M92.31,32.59L79.24,19.51l-0.07,9.47H50.4c-0.55,0-1,0.45-1,1v5.96c0,0.55,0.45,1,1,1h28.7l-0.08,10.31  c0.08-0.04,0.15-0.1,0.21-0.16L92.31,34C92.7,33.61,92.7,32.97,92.31,32.59z" id="svg_7" class="" stroke-opacity="1" stroke="#bfd647" fill="none"/><path d="M49.54,63.79h-28.7l0.08-10.31c-0.08,0.04-0.15,0.1-0.21,0.16L7.63,66.72c-0.39,0.39-0.39,1.03,0,1.41l13.08,13.08  l0.07-9.47h28.76c0.55,0,1-0.45,1-1v-5.96C50.54,64.24,50.09,63.79,49.54,63.79z" id="svg_8" class="" stroke-opacity="1" stroke="#bfd647" fill="none"/></g></svg>