<?xml version="1.0" encoding="utf-8"?>
<!-- Generator: Adobe Illustrator 26.0.3, SVG Export Plug-In . SVG Version: 6.00 Build 0)  -->
<svg version="1.1" id="Capa_1" xmlns="http://www.w3.org/2000/svg" xmlns:xlink="http://www.w3.org/1999/xlink" x="0px" y="0px"
	 viewBox="0 0 100 100" style="enable-background:new 0 0 100 100;" xml:space="preserve">
<style type="text/css">
	.st0{fill:#BFD647;}
	.st1{fill:none;stroke:#000000;stroke-width:3;stroke-miterlimit:10;}
	.st2{clip-path:url(#SVGID_00000121266560510730748820000013239452122373164722_);}
</style>
<g>
	<path d="M36.94,46.76c0,0,0.59,0.26,0.33,0.81s-1.37,1.63-0.78,3.22c0.59,1.59,5.3,0.94,6.18,1.63c0.88,0.68,0.91,1.56,0.29,1.82
		c-0.62,0.26-0.91,0.2-1.07,1.07c-0.16,0.88-0.16,1.5-1.01,1.3c-0.85-0.2-1.27-0.13-1.3,0.36c-0.03,0.49-1.07,2.05-1.5,1.69
		c-0.42-0.36-0.36,0.52-0.62,0.65c-0.26,0.13-0.98-0.36-1.17,0.26c-0.2,0.62-0.49,0.72-0.39,1.3c0.1,0.59,0.16,0.72-0.1,0.98
		s-0.85-0.42-0.94-1.2c-0.1-0.78,0.13-0.13-0.13-1.14c-0.26-1.01-0.13-1.56,0.33-2.6s0.72-2.08,0.42-2.93s-1.11-1.56-1.11-2.9
		s-0.16-1.24,0.42-1.79s0.98-1.04,0.68-1.63c-0.29-0.59-0.29-0.1-0.65-0.59c-0.36-0.49-0.36-0.72-0.62-1.17s-0.94-0.88-0.94-0.88
		L33,44.35c0,0,0.07,0.26,0.65,0.03c0.59-0.23,1.11-0.39,1.11-0.39s-0.26-0.03-0.29,0.72s0.07,0.52,0.29,0.78s0.13,0.03,0.13,0.68
		c0,0.65,0,1.11,0.72,1.07S36.94,46.76,36.94,46.76z" fill="#BFD647"/>
	<path d="M34.4,41.68c0,0,0.88-2.44,3.22-4.39c2.34-1.95,2.7-1.95,3.94-1.92s0.33,0.42-0.59,0.59c-0.91,0.16-1.2,0.42-1.17,0.78
		c0.03,0.36,0.62,0.65,0.62,0.65s0.16,0.1,0.07,0.55s-0.72,0.65,0.1,0.49c0.81-0.16,0.72-0.26,1.07-0.55
		c0.36-0.29,0.33-0.1,0.52-0.49c0.2-0.39,0.2-0.55,0.59-0.55c0.39,0,0.75-0.42,0.88,0.1c0.13,0.52-0.03,0.49,0.2,0.75
		s0.52,0.26,0.52,0.26s0,0.26,0.23,0.78s0.68,0.33,0.62,0.68c-0.07,0.36-0.72,0.2-0.88-0.1s0.42-0.23-0.16-0.29
		c-0.59-0.07-0.94-0.42-1.14-0.16s-0.39,0.26-0.52,0.62c-0.13,0.36,0.68,0.33-0.46,0.72c-1.14,0.39-0.59,0.26-1.43,0.42
		c-0.85,0.16-1.2,0.16-1.4,0.39s-0.36,0.26-0.36,0.42c0,0.16-0.1,0.49-0.1,0.49s-1.2,0.16-1.4,0.29c-0.2,0.13-0.33-0.07-0.39,0.52
		c-0.07,0.59-0.07,0.68-0.13,0.78c-0.07,0.1,0,0.46-0.39,0.03c-0.39-0.42,0.68-0.81-0.16-0.88c-0.85-0.07-0.52,0.16-0.85-0.07
		c-0.33-0.23-0.26-0.2-0.49-0.36c-0.23-0.16-0.23-0.03-0.42-0.26C34.34,41.75,34.4,41.68,34.4,41.68z" fill="#BFD647"/>
	<path d="M35.61,43.86c0.33,0.16,0.46,0.2,0.88,0.42c0.42,0.23,0.85,0.39,0.94,0.46c0.1,0.07-0.03,0.46-0.03,0.46
		s0.03,0.55-0.62-0.1C36.13,44.45,36,44.45,36,44.45s-0.33,0.26-0.46-0.2C35.41,43.8,35.61,43.86,35.61,43.86z"/>
	<path d="M66.36,42.24l-1.66-0.39c0,0-0.24,0.88-1.61,0.15c-1.37-0.73-1.32-0.49-1.51-0.54c-0.2-0.05-0.29-0.93-0.78-0.98
		c-0.49-0.05-1.61-0.34-1.61-0.34l-1.27,0.15c0,0-0.73,0.15-0.88,0.49c-0.15,0.34-1.22,0.49-0.49,0.73
		c0.73,0.24,0.54,0.68,0.54,0.68s-0.78-0.1-1.02-0.1c-0.24,0-0.39,0.29-0.39,0.29s-1.66-0.39-1.76,0.24
		c-0.1,0.63,0.2,0.63,0.15,1.03c-0.05,0.39,0.1,0.68-0.63,0.49c-0.73-0.2-1.02-0.44-1.22,0c-0.2,0.44-0.39,0.98-0.39,0.98l0.29,0.63
		l-1.17,0.78c0,0-0.73,0.34-0.78,0.93s-0.93,0.1-1.02,0.54c-0.1,0.44-0.2,1.02-0.2,1.02s-0.59-0.2-0.34,0.88
		c0.24,1.07,0.39,1.71,0.63,1.95c0.24,0.24,1.07,0.63,1.07,0.63s1.42,0.15,1.71,0.2c0.29,0.05,0.29,0.05,0.49,0.49
		c0.2,0.44,0.63,0.24,0.63,0.73s-0.78,0.78-0.54,1.32c0.24,0.54,0.54,0.88,0.63,1.17c0.1,0.29-0.1,0.98-0.1,0.98
		s-1.03,0.88-0.88,1.66c0,0,2.8-2.65,3.24-3.19c0,0-1.14-0.67-0.55-1.79c0.59-1.12,7.68-1.06,8.46-1.01
		c0.78,0.05,3.07-0.81,3.51,0.94c0.44,1.76,0.37,3.09,0.52,3.09S70.36,49.22,66.36,42.24z M59.72,49.07
		c-0.88-0.39-1.81-0.68-1.81-0.68l-0.98-0.1c0,0-0.39,0.63-0.88-0.05c-0.49-0.68-0.78-0.68-0.78-1.03s0.78-0.73,0.29-0.83
		c-0.49-0.1-1.07-0.1-1.07-0.1s-0.63,0.29-0.88-0.1c-0.24-0.39-0.05-0.59-0.05-0.59c0.88-0.59,0.83-1.07,1.42-1.07
		c0.59,0,0.63-0.15,0.88,0.39c0.24,0.54,0.68,1.32,1.17,1.37c0.49,0.05-0.05-0.54-0.15-0.68c-0.1-0.15-0.59-1.27-0.34-0.98
		c0.24,0.29,0.34,0.49,0.78,1.02c0.44,0.54,0,1.07,0.2,1.27c0.2,0.2,0.1,0.83,0.49,0.2c0.39-0.63,0.44-0.83,0.44-0.83
		s0.24,0.49,0.44,0.88c0.2,0.39,0.1,0.68,0.59,0.78c0.49,0.1,1.03,0.34,1.03,0.34S60.6,49.46,59.72,49.07z" fill="#BFD647"/>
	<path d="M44.23,41.59l-0.55-2.15L37.1,50.18l10.74-1.2l-1.24-1.82c0,0,7.39-9.01,17.41-10.58s13.41,2.34,8.27,10.15
		c0,0,4.36-4.88,2.02-9.05c-2.34-4.17-3.81-4.39-3.81-4.39S60.37,27.95,44.23,41.59z" fill="#FFFFFF"/>
	<path d="M73.32,37.84c0,0,0.98,2.41-2.51,4.56l1.27,3.81C72.08,46.21,75.92,40.51,73.32,37.84z" fill="#FFFFFF"/>
	<path d="M58.49,61.74l0.43,2.18l7.18-10.34l-10.79,0.58l1.13,1.89c0,0-7.9,8.57-17.99,9.55c-10.1,0.98-13.25-3.11-7.66-10.61
		c0,0-4.64,4.62-2.54,8.91s3.55,4.61,3.55,4.61S41.59,74.42,58.49,61.74z" fill="#FFFFFF"/>
	<path d="M29.23,63.8c0,0-0.84-2.46,2.76-4.4l-1.05-3.87C30.95,55.52,26.79,60.98,29.23,63.8z" fill="#FFFFFF"/>
</g>
</svg>
